<?xml version="1.0" encoding="utf-8"?>
<!-- Generator: Adobe Illustrator 16.0.0, SVG Export Plug-In . SVG Version: 6.00 Build 0)  -->
<!DOCTYPE svg PUBLIC "-//W3C//DTD SVG 1.1//EN" "http://www.w3.org/Graphics/SVG/1.1/DTD/svg11.dtd">
<svg version="1.1" id="Layer_1" xmlns="http://www.w3.org/2000/svg" xmlns:xlink="http://www.w3.org/1999/xlink" x="0px" y="0px"
	 width="595.28px" height="841.89px" viewBox="0 0 595.28 841.89" enable-background="new 0 0 595.28 841.89" xml:space="preserve">
<g>
	<g>
		<g>
			<path fill="#231F20" d="M436.45,1121.386c-24.19,0-41.505-0.694-54.317-2.079c-10.833-1.186-12.635-10.759-13.356-13.059
				c-0.722-2.298-2.374-25.003-2.374-45.239s1.298-41.092,2.004-50.775c0.704-9.684,4.525-14.74,16.003-16.126
				c11.477-1.384,52.041-1.979,52.041-1.979s40.564,0.594,52.042,1.979c11.476,1.385,15.298,6.442,16.003,16.126
				c0.705,9.683,2.003,23.581,2.003,50.774s-1.653,42.942-2.374,45.24c-0.721,2.3-2.523,11.873-13.356,13.059
				C479.934,1120.496,441.941,1121.534,436.45,1121.386z"/>
		</g>
	</g>
	<g>
		<path fill="#178ACC" d="M418.882,1100.203c-11.063,0-20.815,7.62-24.568,7.463c-3.751-0.156,5.088-6.24-0.274-8.413
			c-4.954-0.543-5.778-4.921-6.108-5.973s-1.086-10.453-1.086-15.68s0.594-12.54,0.916-16.97c0.323-4.428,2.071-6.74,7.319-7.375
			c5.249-0.633,23.802-0.905,23.802-0.906c0,0,18.554,0.273,23.802,0.906c5.25,0.635,6.997,2.947,7.32,7.375
			c0.321,4.429,0.916,11.742,0.916,16.97c0,5.226-0.756,14.628-1.087,15.68c-0.329,1.052-1.153,5.43-6.108,5.973
			C438.77,1099.797,421.394,1100.271,418.882,1100.203z"/>
		<g>
			<path fill="#FFFFFF" d="M401.269,1091.968l-6.982-29.413h7.113l2.226,12.132c0.655,3.491,1.266,7.288,1.746,10.255h0.087
				c0.48-3.186,1.179-6.721,1.921-10.343l2.487-12.044h7.069l2.356,12.394c0.655,3.447,1.135,6.59,1.571,9.862h0.087
				c0.437-3.272,1.092-6.721,1.702-10.212l2.4-12.044h6.765l-7.594,29.413h-7.2l-2.488-12.655c-0.567-2.968-1.047-5.717-1.396-9.077
				h-0.087c-0.523,3.316-1.004,6.109-1.702,9.077l-2.793,12.655H401.269z"/>
			<path fill="#FFFFFF" d="M440.718,1064.692c0,1.833-1.396,3.317-3.579,3.317c-2.094,0-3.49-1.484-3.447-3.317
				c-0.043-1.92,1.354-3.36,3.491-3.36C439.321,1061.332,440.674,1062.772,440.718,1064.692z M433.866,1091.968v-21.34h6.633v21.34
				H433.866z"/>
			<path fill="#FFFFFF" d="M454.854,1062.555h17.98v5.455h-11.303v6.72h10.561v5.412h-10.561v11.826h-6.678V1062.555z"/>
			<path fill="#FFFFFF" d="M483.613,1064.692c0,1.833-1.396,3.317-3.578,3.317c-2.096,0-3.492-1.484-3.448-3.317
				c-0.044-1.92,1.353-3.36,3.491-3.36S483.569,1062.772,483.613,1064.692z M476.762,1091.968v-21.34h6.633v21.34H476.762z"/>
		</g>
		<g>
			<path fill="#FFFFFF" stroke="#FFFFFF" stroke-width="1.5073" stroke-miterlimit="10" d="M419.513,1018.009h3.442v13.815
				c0,7.645-6.17,13.814-13.814,13.814c-7.601,0-13.815-6.17-13.815-13.814v-13.815h3.487v13.815
				c0,5.723,4.605,10.372,10.328,10.372s10.372-4.649,10.372-10.372V1018.009z"/>
			<path fill="#FFFFFF" stroke="#FFFFFF" stroke-width="1.5073" stroke-miterlimit="10" d="M453.316,1031.824v13.814h-3.487v-13.814
				c0-5.723-4.649-10.373-10.327-10.373c-5.723,0-10.373,4.65-10.373,10.373v13.814h-3.487v-13.814h0.045
				c0-7.646,6.17-13.815,13.815-13.815C447.102,1018.009,453.316,1024.179,453.316,1031.824z"/>
			<path fill="#FFFFFF" stroke="#FFFFFF" stroke-width="1.5073" stroke-miterlimit="10" d="M456.003,1031.824
				c0-7.646,6.215-13.815,13.815-13.815c7.645,0,13.814,6.17,13.814,13.815c0,7.6-6.17,13.814-13.814,13.814
				C462.218,1045.639,456.003,1039.424,456.003,1031.824z M459.446,1031.824c0,5.678,4.649,10.327,10.372,10.327
				s10.372-4.649,10.372-10.327c0-5.723-4.649-10.373-10.372-10.373S459.446,1026.102,459.446,1031.824z"/>
		</g>
	</g>
</g>
<g>
	<g>
		<g>
			<path fill="#231F20" d="M296.988,1716.425c-25.669,0-44.042-0.735-57.639-2.206c-11.496-1.258-13.409-11.416-14.174-13.856
				c-0.765-2.439-2.519-26.533-2.519-48.008c0-21.476,1.377-43.605,2.125-53.882c0.748-10.275,4.803-15.642,16.982-17.111
				c12.179-1.47,55.225-2.102,55.225-2.102s43.047,0.631,55.227,2.102c12.178,1.469,16.233,6.836,16.981,17.111
				s2.126,25.023,2.126,53.882c0,28.857-1.755,45.568-2.52,48.008c-0.766,2.44-2.678,12.599-14.174,13.856
				C343.133,1715.48,302.815,1716.582,296.988,1716.425z"/>
		</g>
	</g>
	<g>
		<path fill="#FFFFFF" d="M278.346,1693.885c-11.74,0-22.089,8.086-26.071,7.92c-3.981-0.166,5.399-6.623-0.291-8.928
			c-5.258-0.575-6.133-5.222-6.483-6.337c-0.351-1.116-1.153-11.094-1.153-16.64c0-5.545,0.631-13.307,0.973-18.008
			c0.341-4.699,2.197-7.153,7.766-7.826c5.571-0.672,25.258-0.96,25.258-0.962c0,0,19.688,0.29,25.258,0.962
			c5.569,0.673,7.424,3.127,7.767,7.826c0.342,4.699,0.973,12.461,0.973,18.008c0,5.546-0.803,15.523-1.152,16.64
			c-0.352,1.115-1.225,5.762-6.482,6.337C299.45,1693.453,281.011,1693.959,278.346,1693.885z"/>
		<g>
			<path fill="#231F20" d="M259.657,1685.146l-7.41-31.216h7.549l2.362,12.876c0.695,3.705,1.343,7.733,1.853,10.884h0.093
				c0.509-3.381,1.25-7.133,2.037-10.978l2.64-12.782h7.502l2.501,13.153c0.695,3.659,1.204,6.993,1.668,10.467h0.092
				c0.463-3.474,1.158-7.133,1.806-10.838l2.548-12.782h7.178l-8.059,31.216h-7.643l-2.639-13.431
				c-0.603-3.149-1.112-6.067-1.482-9.634h-0.094c-0.555,3.52-1.065,6.484-1.806,9.634l-2.964,13.431H259.657z"/>
			<path fill="#231F20" d="M301.519,1656.2c0,1.945-1.482,3.52-3.798,3.52c-2.223,0-3.705-1.574-3.658-3.52
				c-0.047-2.038,1.436-3.566,3.705-3.566C300.036,1652.634,301.473,1654.162,301.519,1656.2z M294.248,1685.146v-22.647h7.039
				v22.647H294.248z"/>
			<path fill="#FFFFFF" d="M316.521,1653.931h19.082v5.789h-11.996v7.133h11.208v5.743h-11.208v12.551h-7.086V1653.931z"/>
			<path fill="#FFFFFF" d="M347.039,1656.2c0,1.945-1.482,3.52-3.798,3.52c-2.224,0-3.705-1.574-3.659-3.52
				c-0.046-2.038,1.436-3.566,3.705-3.566S346.992,1654.162,347.039,1656.2z M339.767,1685.146v-22.647h7.04v22.647H339.767z"/>
		</g>
		<g>
			<path fill="#FFFFFF" stroke="#FFFFFF" stroke-width="1.5995" stroke-miterlimit="10" d="M279.02,1606.781h3.654v14.662
				c0,8.114-6.548,14.662-14.663,14.662c-8.065,0-14.661-6.548-14.661-14.662v-14.662h3.701v14.662
				c0,6.074,4.887,11.009,10.96,11.009s11.009-4.935,11.009-11.009V1606.781z"/>
			<path fill="#FFFFFF" stroke="#FFFFFF" stroke-width="1.5995" stroke-miterlimit="10" d="M314.892,1621.443v14.662h-3.701v-14.662
				c0-6.073-4.935-11.008-10.962-11.008c-6.073,0-11.007,4.935-11.007,11.008v14.662h-3.702v-14.662h0.048
				c0-8.114,6.548-14.662,14.661-14.662C308.297,1606.781,314.892,1613.329,314.892,1621.443z"/>
			<path fill="#FFFFFF" stroke="#FFFFFF" stroke-width="1.5995" stroke-miterlimit="10" d="M317.738,1621.443
				c0-8.114,6.596-14.662,14.662-14.662c8.114,0,14.662,6.548,14.662,14.662c0,8.066-6.548,14.662-14.662,14.662
				C324.334,1636.105,317.738,1629.51,317.738,1621.443z M321.392,1621.443c0,6.026,4.935,10.961,11.009,10.961
				c6.073,0,11.009-4.935,11.009-10.961c0-6.073-4.936-11.008-11.009-11.008C326.326,1610.436,321.392,1615.37,321.392,1621.443z"/>
		</g>
	</g>
</g>
<g>
	<g>
		<path fill="#178ACC" d="M141.399,1111.402c-14.816,0-27.876,10.204-32.901,9.995c-5.023-0.21,6.814-8.358-0.367-11.268
			c-6.636-0.727-7.74-6.591-8.182-7.998c-0.442-1.408-1.454-13.999-1.454-20.998c0-6.998,0.796-16.792,1.228-22.724
			c0.431-5.932,2.772-9.028,9.801-9.878c7.03-0.848,31.875-1.212,31.875-1.212s24.845,0.364,31.875,1.212
			c7.029,0.85,9.369,3.946,9.802,9.878c0.431,5.93,1.228,15.724,1.228,22.724c0,6.999-1.013,19.59-1.455,20.998
			c-0.443,1.407-1.545,7.271-8.182,7.998C168.032,1110.857,144.762,1111.494,141.399,1111.402z"/>
		<g>
			<path fill="#FFFFFF" d="M117.812,1100.374l-9.351-39.39h9.526l2.98,16.247c0.877,4.675,1.695,9.76,2.338,13.733h0.117
				c0.643-4.266,1.578-9,2.572-13.851l3.331-16.13h9.467l3.156,16.598c0.877,4.617,1.52,8.824,2.104,13.208h0.117
				c0.584-4.384,1.461-9,2.279-13.676l3.214-16.13h9.059l-10.169,39.39h-9.643l-3.332-16.948c-0.76-3.974-1.402-7.655-1.87-12.155
				h-0.117c-0.701,4.441-1.344,8.182-2.279,12.155l-3.74,16.948H117.812z"/>
			<path fill="#FFFFFF" d="M170.64,1063.849c0,2.454-1.87,4.441-4.792,4.441c-2.805,0-4.675-1.987-4.617-4.441
				c-0.058-2.571,1.812-4.5,4.675-4.5C168.77,1059.349,170.582,1061.277,170.64,1063.849z M161.465,1100.374v-28.578h8.883v28.578
				H161.465z"/>
			<path fill="#231F20" d="M189.573,1060.984h24.078v7.306h-15.136v9h14.143v7.246h-14.143v15.838h-8.942V1060.984z"/>
			<path fill="#231F20" d="M228.084,1063.849c0,2.454-1.87,4.441-4.792,4.441c-2.805,0-4.675-1.987-4.617-4.441
				c-0.058-2.571,1.812-4.5,4.675-4.5C226.214,1059.349,228.026,1061.277,228.084,1063.849z M218.909,1100.374v-28.578h8.883v28.578
				H218.909z"/>
		</g>
		<g>
			<path fill="#231F20" stroke="#231F20" stroke-width="2.0186" stroke-miterlimit="10" d="M142.245,1002.007h4.61v18.501
				c0,10.239-8.263,18.502-18.501,18.502c-10.179,0-18.501-8.263-18.501-18.502v-18.501h4.67v18.501
				c0,7.664,6.167,13.892,13.831,13.892s13.891-6.228,13.891-13.892V1002.007z"/>
			<path fill="#231F20" stroke="#231F20" stroke-width="2.0186" stroke-miterlimit="10" d="M187.514,1020.508v18.502h-4.67v-18.502
				c0-7.664-6.227-13.891-13.831-13.891c-7.664,0-13.892,6.227-13.892,13.891v18.502h-4.67v-18.502h0.06
				c0-10.238,8.263-18.501,18.502-18.501C179.191,1002.007,187.514,1010.27,187.514,1020.508z"/>
			<path fill="#231F20" stroke="#231F20" stroke-width="2.0186" stroke-miterlimit="10" d="M191.109,1020.508
				c0-10.238,8.323-18.501,18.501-18.501c10.239,0,18.501,8.263,18.501,18.501c0,10.18-8.263,18.502-18.501,18.502
				C199.432,1039.01,191.109,1030.688,191.109,1020.508z M195.72,1020.508c0,7.604,6.227,13.832,13.891,13.832
				s13.891-6.228,13.891-13.832c0-7.664-6.227-13.891-13.891-13.891S195.72,1012.844,195.72,1020.508z"/>
		</g>
	</g>
</g>
<g>
	<g>
		<path fill="#178ACC" d="M256.086,522.641c-28.117,0-52.904,19.366-62.44,18.969c-9.534-0.398,12.931-15.862-0.697-21.383
			c-12.594-1.379-14.688-12.508-15.526-15.18c-0.84-2.673-2.76-26.566-2.76-39.85c0-13.282,1.51-31.87,2.33-43.127
			c0.818-11.256,5.261-17.133,18.6-18.744c13.341-1.61,60.493-2.301,60.493-2.303c0,0,47.152,0.692,60.492,2.303
			c13.34,1.611,17.781,7.488,18.602,18.744c0.818,11.255,2.33,29.843,2.33,43.127c0,13.281-1.924,37.177-2.762,39.85
			c-0.84,2.672-2.932,13.801-15.525,15.18C306.629,521.607,262.467,522.814,256.086,522.641z"/>
		<g>
			<path fill="#FFFFFF" d="M211.319,501.712l-17.744-74.747h18.077l5.656,30.83c1.663,8.872,3.216,18.521,4.436,26.062h0.222
				c1.22-8.096,2.994-17.079,4.879-26.284l6.321-30.608h17.966l5.989,31.496c1.663,8.761,2.883,16.746,3.992,25.063h0.222
				c1.109-8.317,2.772-17.079,4.325-25.951l6.1-30.608h17.189l-19.296,74.747h-18.299l-6.321-32.161
				c-1.442-7.541-2.662-14.528-3.549-23.067h-0.222c-1.331,8.429-2.551,15.526-4.325,23.067l-7.098,32.161H211.319z"/>
			<path fill="#FFFFFF" d="M311.576,432.398c0,4.658-3.549,8.429-9.094,8.429c-5.323,0-8.872-3.771-8.761-8.429
				c-0.111-4.879,3.438-8.539,8.872-8.539C308.027,423.859,311.467,427.52,311.576,432.398z M294.166,501.712v-54.23h16.856v54.23
				H294.166z"/>
			<path fill="#231F20" d="M347.51,426.965h45.691v13.862h-28.725v17.079h26.838v13.752h-26.838v30.054H347.51V426.965z"/>
			<path fill="#231F20" d="M420.596,432.398c0,4.658-3.549,8.429-9.094,8.429c-5.324,0-8.873-3.771-8.762-8.429
				c-0.111-4.879,3.438-8.539,8.873-8.539C417.047,423.859,420.484,427.52,420.596,432.398z M403.184,501.712v-54.23h16.857v54.23
				H403.184z"/>
		</g>
		<g>
			<path fill="#231F20" stroke="#231F20" stroke-width="3.8308" stroke-miterlimit="10" d="M257.699,316.814h8.751v35.117
				c0,19.434-15.684,35.117-35.117,35.117c-19.32,0-35.117-15.684-35.117-35.117v-35.117h8.865v35.117
				c0,14.547,11.706,26.366,26.252,26.366s26.366-11.819,26.366-26.366V316.814z"/>
			<path fill="#231F20" stroke="#231F20" stroke-width="3.8308" stroke-miterlimit="10" d="M343.611,351.932v35.117h-8.863v-35.117
				c0-14.547-11.82-26.366-26.254-26.366c-14.546,0-26.365,11.819-26.365,26.366v35.117h-8.865v-35.117h0.114
				c0-19.434,15.684-35.117,35.116-35.117C327.814,316.814,343.611,332.498,343.611,351.932z"/>
			<path fill="#231F20" stroke="#231F20" stroke-width="3.8308" stroke-miterlimit="10" d="M350.426,351.932
				c0-19.434,15.797-35.117,35.117-35.117c19.434,0,35.117,15.684,35.117,35.117c0,19.32-15.684,35.117-35.117,35.117
				C366.223,387.049,350.426,371.252,350.426,351.932z M359.178,351.932c0,14.434,11.818,26.253,26.365,26.253
				s26.367-11.819,26.367-26.253c0-14.547-11.82-26.366-26.367-26.366S359.178,337.385,359.178,351.932z"/>
		</g>
	</g>
</g>
<text transform="matrix(1 0 0 1 249.4805 722.875)" fill="#231F20" font-family="'HelveticaNeue-UltraLight'" font-size="12">Manual de marca</text>
<line fill="#231F20" stroke="#FFFFFF" stroke-width="0.8362" stroke-miterlimit="10" x1="241.14" y1="734.715" x2="354.14" y2="734.715"/>
<text transform="matrix(1 0 0 1 245.6221 752.875)" fill="#231F20" font-family="'HelveticaNeue-UltraLight'" font-size="12">www.innvenio.com</text>
<rect y="907.064" fill="#1A1818" width="595.28" height="25.531"/>
<text transform="matrix(1 0 0 1 134.4307 924.2344)" fill="#FFFFFF" font-family="'HelveticaNeue-UltraLight'" font-size="12">Logotipo</text>
<text transform="matrix(1 0 0 1 390.5527 924.2344)" fill="#FFFFFF" font-family="'HelveticaNeue-UltraLight'" font-size="12">Logotipo y box</text>
<line fill="none" stroke="#AEB0B2" stroke-width="1.4829" stroke-miterlimit="10" x1="308.406" y1="1305.27" x2="565.489" y2="1305.27"/>
<line fill="none" stroke="#AEB0B2" stroke-width="1.4829" stroke-miterlimit="10" x1="309.278" y1="1436.113" x2="566.361" y2="1436.113"/>
<line fill="none" stroke="#AEB0B2" stroke-width="1.3134" stroke-miterlimit="10" x1="508.857" y1="1270.224" x2="508.857" y2="1471.894"/>
<line fill="none" stroke="#AEB0B2" stroke-width="1.3118" stroke-miterlimit="10" x1="367.087" y1="1269.843" x2="367.087" y2="1471.023"/>
<line fill="none" stroke="#AEB0B2" stroke-width="1.3118" stroke-miterlimit="10" x1="334.977" y1="1270.713" x2="334.977" y2="1471.894"/>
<line fill="none" stroke="#AEB0B2" stroke-width="1.3134" stroke-miterlimit="10" x1="540.897" y1="1269.352" x2="540.897" y2="1471.021"/>
<line fill="none" stroke="#AEB0B2" stroke-width="1.4829" stroke-miterlimit="10" x1="308.278" y1="1272.949" x2="565.361" y2="1272.949"/>
<line fill="none" stroke="#AEB0B2" stroke-width="1.4829" stroke-miterlimit="10" x1="308.406" y1="1468.153" x2="565.489" y2="1468.153"/>
<g>
	<g>
		<g>
			<path fill="#231F20" d="M437.819,1434.416c-24.19,0-41.505-0.694-54.317-2.079c-10.833-1.186-12.635-10.759-13.356-13.059
				c-0.722-2.298-2.374-25.003-2.374-45.239s1.298-41.092,2.004-50.775c0.704-9.684,4.525-14.74,16.003-16.126
				c11.477-1.384,52.041-1.979,52.041-1.979s40.564,0.594,52.042,1.979c11.476,1.385,15.298,6.442,16.003,16.126
				c0.705,9.683,2.003,23.581,2.003,50.774s-1.653,42.942-2.374,45.24c-0.721,2.3-2.523,11.873-13.356,13.059
				C481.303,1433.526,443.311,1434.564,437.819,1434.416z"/>
		</g>
	</g>
	<g>
		<path fill="#178ACC" d="M420.251,1413.233c-11.063,0-20.815,7.62-24.568,7.463c-3.751-0.156,5.088-6.24-0.274-8.413
			c-4.954-0.543-5.778-4.921-6.108-5.973s-1.086-10.453-1.086-15.68s0.594-12.54,0.916-16.97c0.323-4.428,2.071-6.74,7.319-7.375
			c5.249-0.633,23.802-0.905,23.802-0.906c0,0,18.554,0.273,23.802,0.906c5.25,0.635,6.997,2.947,7.32,7.375
			c0.321,4.429,0.916,11.742,0.916,16.97c0,5.226-0.756,14.628-1.087,15.68c-0.329,1.052-1.153,5.43-6.108,5.973
			C440.139,1412.827,422.763,1413.302,420.251,1413.233z"/>
		<g>
			<path fill="#FFFFFF" d="M402.638,1404.998l-6.982-29.413h7.113l2.226,12.132c0.655,3.491,1.266,7.288,1.746,10.255h0.087
				c0.48-3.186,1.179-6.721,1.921-10.343l2.487-12.044h7.069l2.356,12.394c0.655,3.447,1.135,6.59,1.571,9.862h0.087
				c0.437-3.272,1.092-6.721,1.702-10.212l2.4-12.044h6.765l-7.594,29.413h-7.2l-2.488-12.655c-0.567-2.968-1.047-5.717-1.396-9.077
				h-0.087c-0.523,3.316-1.004,6.109-1.702,9.077l-2.793,12.655H402.638z"/>
			<path fill="#FFFFFF" d="M442.087,1377.723c0,1.833-1.396,3.317-3.579,3.317c-2.094,0-3.49-1.484-3.447-3.317
				c-0.043-1.92,1.354-3.36,3.491-3.36C440.69,1374.362,442.043,1375.803,442.087,1377.723z M435.235,1404.998v-21.34h6.633v21.34
				H435.235z"/>
			<path fill="#FFFFFF" d="M456.224,1375.585h17.98v5.455h-11.303v6.72h10.561v5.412h-10.561v11.826h-6.678V1375.585z"/>
			<path fill="#FFFFFF" d="M484.982,1377.723c0,1.833-1.396,3.317-3.578,3.317c-2.096,0-3.492-1.484-3.448-3.317
				c-0.044-1.92,1.353-3.36,3.491-3.36S484.938,1375.803,484.982,1377.723z M478.131,1404.998v-21.34h6.633v21.34H478.131z"/>
		</g>
		<g>
			<path fill="#FFFFFF" stroke="#FFFFFF" stroke-width="1.5073" stroke-miterlimit="10" d="M420.882,1331.039h3.442v13.815
				c0,7.645-6.17,13.814-13.814,13.814c-7.601,0-13.815-6.17-13.815-13.814v-13.815h3.487v13.815
				c0,5.723,4.605,10.372,10.328,10.372s10.372-4.649,10.372-10.372V1331.039z"/>
			<path fill="#FFFFFF" stroke="#FFFFFF" stroke-width="1.5073" stroke-miterlimit="10" d="M454.686,1344.854v13.814h-3.487v-13.814
				c0-5.723-4.649-10.373-10.327-10.373c-5.723,0-10.373,4.65-10.373,10.373v13.814h-3.487v-13.814h0.045
				c0-7.646,6.17-13.815,13.815-13.815C448.471,1331.039,454.686,1337.209,454.686,1344.854z"/>
			<path fill="#FFFFFF" stroke="#FFFFFF" stroke-width="1.5073" stroke-miterlimit="10" d="M457.372,1344.854
				c0-7.646,6.215-13.815,13.815-13.815c7.645,0,13.814,6.17,13.814,13.815c0,7.6-6.17,13.814-13.814,13.814
				C463.587,1358.669,457.372,1352.454,457.372,1344.854z M460.815,1344.854c0,5.678,4.649,10.327,10.372,10.327
				s10.372-4.649,10.372-10.327c0-5.723-4.649-10.373-10.372-10.373S460.815,1339.132,460.815,1344.854z"/>
		</g>
	</g>
</g>
<g>
	<g>
		<path fill="#178ACC" d="M141.265,1384.802c-11.063,0-20.815,7.62-24.568,7.463c-3.751-0.156,5.088-6.24-0.274-8.413
			c-4.954-0.543-5.778-4.921-6.108-5.973s-1.086-10.453-1.086-15.68s0.594-12.54,0.916-16.97c0.323-4.428,2.071-6.74,7.319-7.375
			c5.249-0.633,23.802-0.905,23.802-0.906c0,0,18.554,0.273,23.802,0.906c5.25,0.635,6.997,2.947,7.32,7.375
			c0.321,4.429,0.916,11.742,0.916,16.97c0,5.226-0.756,14.628-1.087,15.68c-0.329,1.052-1.153,5.43-6.108,5.973
			C161.153,1384.396,143.777,1384.87,141.265,1384.802z"/>
		<g>
			<path fill="#FFFFFF" d="M123.652,1376.566l-6.982-29.413h7.113l2.226,12.132c0.655,3.491,1.266,7.288,1.746,10.255h0.087
				c0.48-3.186,1.179-6.721,1.921-10.343l2.487-12.044h7.069l2.356,12.394c0.655,3.447,1.135,6.59,1.571,9.862h0.087
				c0.437-3.272,1.092-6.721,1.702-10.212l2.4-12.044h6.765l-7.594,29.413h-7.2l-2.488-12.655c-0.567-2.968-1.047-5.717-1.396-9.077
				h-0.087c-0.523,3.316-1.004,6.109-1.702,9.077l-2.793,12.655H123.652z"/>
			<path fill="#FFFFFF" d="M163.101,1349.291c0,1.833-1.396,3.317-3.579,3.317c-2.094,0-3.49-1.484-3.447-3.317
				c-0.043-1.92,1.354-3.36,3.491-3.36C161.705,1345.931,163.057,1347.371,163.101,1349.291z M156.25,1376.566v-21.34h6.633v21.34
				H156.25z"/>
			<path fill="#231F20" d="M177.238,1347.153h17.98v5.455h-11.303v6.72h10.561v5.412h-10.561v11.826h-6.678V1347.153z"/>
			<path fill="#231F20" d="M205.997,1349.291c0,1.833-1.396,3.317-3.578,3.317c-2.096,0-3.492-1.484-3.448-3.317
				c-0.044-1.92,1.353-3.36,3.491-3.36S205.953,1347.371,205.997,1349.291z M199.145,1376.566v-21.34h6.633v21.34H199.145z"/>
		</g>
		<g>
			<path fill="#231F20" stroke="#231F20" stroke-width="1.5073" stroke-miterlimit="10" d="M141.896,1302.607h3.442v13.815
				c0,7.645-6.17,13.814-13.814,13.814c-7.601,0-13.815-6.17-13.815-13.814v-13.815h3.487v13.815
				c0,5.723,4.605,10.372,10.328,10.372s10.372-4.649,10.372-10.372V1302.607z"/>
			<path fill="#231F20" stroke="#231F20" stroke-width="1.5073" stroke-miterlimit="10" d="M175.7,1316.423v13.814h-3.487v-13.814
				c0-5.723-4.649-10.373-10.327-10.373c-5.723,0-10.373,4.65-10.373,10.373v13.814h-3.487v-13.814h0.045
				c0-7.646,6.17-13.815,13.815-13.815C169.485,1302.607,175.7,1308.777,175.7,1316.423z"/>
			<path fill="#231F20" stroke="#231F20" stroke-width="1.5073" stroke-miterlimit="10" d="M178.386,1316.423
				c0-7.646,6.215-13.815,13.815-13.815c7.645,0,13.814,6.17,13.814,13.815c0,7.6-6.17,13.814-13.814,13.814
				C184.601,1330.237,178.386,1324.022,178.386,1316.423z M181.83,1316.423c0,5.678,4.649,10.327,10.372,10.327
				s10.372-4.649,10.372-10.327c0-5.723-4.649-10.373-10.372-10.373S181.83,1310.7,181.83,1316.423z"/>
		</g>
	</g>
</g>
<g>
	<g>
		<polyline fill="none" stroke="#1A1818" stroke-width="1.693" stroke-miterlimit="10" points="207.656,1330.184 207.656,1331.877 
			205.963,1331.877 		"/>
		
			<line fill="none" stroke="#1A1818" stroke-width="1.693" stroke-miterlimit="10" stroke-dasharray="3.0582,3.0582" x1="202.905" y1="1331.877" x2="179.968" y2="1331.877"/>
		<polyline fill="none" stroke="#1A1818" stroke-width="1.693" stroke-miterlimit="10" points="178.439,1331.877 176.746,1331.877 
			176.746,1330.184 		"/>
		
			<line fill="none" stroke="#1A1818" stroke-width="1.693" stroke-miterlimit="10" stroke-dasharray="3.0582,3.0582" x1="176.746" y1="1327.126" x2="176.746" y2="1304.188"/>
		<polyline fill="none" stroke="#1A1818" stroke-width="1.693" stroke-miterlimit="10" points="176.746,1302.66 176.746,1300.967 
			178.439,1300.967 		"/>
		
			<line fill="none" stroke="#1A1818" stroke-width="1.693" stroke-miterlimit="10" stroke-dasharray="3.0582,3.0582" x1="181.497" y1="1300.967" x2="204.434" y2="1300.967"/>
		<polyline fill="none" stroke="#1A1818" stroke-width="1.693" stroke-miterlimit="10" points="205.963,1300.967 207.656,1300.967 
			207.656,1302.66 		"/>
		
			<line fill="none" stroke="#1A1818" stroke-width="1.693" stroke-miterlimit="10" stroke-dasharray="3.0582,3.0582" x1="207.656" y1="1305.718" x2="207.656" y2="1328.655"/>
	</g>
</g>
<g>
	<g>
		<polyline fill="none" stroke="#1A1818" stroke-width="1.693" stroke-miterlimit="10" points="367.087,1465.33 367.087,1467.023 
			365.394,1467.023 		"/>
		
			<line fill="none" stroke="#1A1818" stroke-width="1.693" stroke-miterlimit="10" stroke-dasharray="3.0582,3.0582" x1="362.336" y1="1467.023" x2="339.398" y2="1467.023"/>
		<polyline fill="none" stroke="#1A1818" stroke-width="1.693" stroke-miterlimit="10" points="337.87,1467.023 336.177,1467.023 
			336.177,1465.33 		"/>
		
			<line fill="none" stroke="#1A1818" stroke-width="1.693" stroke-miterlimit="10" stroke-dasharray="3.0582,3.0582" x1="336.177" y1="1462.272" x2="336.177" y2="1439.335"/>
		<polyline fill="none" stroke="#1A1818" stroke-width="1.693" stroke-miterlimit="10" points="336.177,1437.807 336.177,1436.113 
			337.87,1436.113 		"/>
		
			<line fill="none" stroke="#1A1818" stroke-width="1.693" stroke-miterlimit="10" stroke-dasharray="3.0582,3.0582" x1="340.928" y1="1436.113" x2="363.865" y2="1436.113"/>
		<polyline fill="none" stroke="#1A1818" stroke-width="1.693" stroke-miterlimit="10" points="365.394,1436.113 367.087,1436.113 
			367.087,1437.807 		"/>
		
			<line fill="none" stroke="#1A1818" stroke-width="1.693" stroke-miterlimit="10" stroke-dasharray="3.0582,3.0582" x1="367.087" y1="1440.864" x2="367.087" y2="1463.802"/>
	</g>
</g>
<g>
	<g>
		<polyline fill="none" stroke="#1A1818" stroke-width="1.693" stroke-miterlimit="10" points="540.953,1302.166 540.953,1303.859 
			539.26,1303.859 		"/>
		
			<line fill="none" stroke="#1A1818" stroke-width="1.693" stroke-miterlimit="10" stroke-dasharray="3.0582,3.0582" x1="536.202" y1="1303.859" x2="513.266" y2="1303.859"/>
		<polyline fill="none" stroke="#1A1818" stroke-width="1.693" stroke-miterlimit="10" points="511.736,1303.859 510.043,1303.859 
			510.043,1302.166 		"/>
		
			<line fill="none" stroke="#1A1818" stroke-width="1.693" stroke-miterlimit="10" stroke-dasharray="3.0582,3.0582" x1="510.043" y1="1299.108" x2="510.043" y2="1276.171"/>
		<polyline fill="none" stroke="#1A1818" stroke-width="1.693" stroke-miterlimit="10" points="510.043,1274.643 510.043,1272.949 
			511.736,1272.949 		"/>
		
			<line fill="none" stroke="#1A1818" stroke-width="1.693" stroke-miterlimit="10" stroke-dasharray="3.0582,3.0582" x1="514.794" y1="1272.949" x2="537.73" y2="1272.949"/>
		<polyline fill="none" stroke="#1A1818" stroke-width="1.693" stroke-miterlimit="10" points="539.26,1272.949 540.953,1272.949 
			540.953,1274.643 		"/>
		
			<line fill="none" stroke="#1A1818" stroke-width="1.693" stroke-miterlimit="10" stroke-dasharray="3.0582,3.0582" x1="540.953" y1="1277.7" x2="540.953" y2="1300.638"/>
	</g>
</g>
<g>
	<g>
		<polyline fill="none" stroke="#1A1818" stroke-width="1.693" stroke-miterlimit="10" points="175.728,1439.881 175.728,1441.574 
			174.035,1441.574 		"/>
		
			<line fill="none" stroke="#1A1818" stroke-width="1.693" stroke-miterlimit="10" stroke-dasharray="3.0582,3.0582" x1="170.976" y1="1441.574" x2="148.04" y2="1441.574"/>
		<polyline fill="none" stroke="#1A1818" stroke-width="1.693" stroke-miterlimit="10" points="146.51,1441.574 144.817,1441.574 
			144.817,1439.881 		"/>
		
			<line fill="none" stroke="#1A1818" stroke-width="1.693" stroke-miterlimit="10" stroke-dasharray="3.0582,3.0582" x1="144.817" y1="1436.823" x2="144.817" y2="1413.886"/>
		<polyline fill="none" stroke="#1A1818" stroke-width="1.693" stroke-miterlimit="10" points="144.817,1412.357 144.817,1410.664 
			146.51,1410.664 		"/>
		
			<line fill="none" stroke="#1A1818" stroke-width="1.693" stroke-miterlimit="10" stroke-dasharray="3.0582,3.0582" x1="149.569" y1="1410.664" x2="172.505" y2="1410.664"/>
		<polyline fill="none" stroke="#1A1818" stroke-width="1.693" stroke-miterlimit="10" points="174.035,1410.664 175.728,1410.664 
			175.728,1412.357 		"/>
		
			<line fill="none" stroke="#1A1818" stroke-width="1.693" stroke-miterlimit="10" stroke-dasharray="3.0582,3.0582" x1="175.728" y1="1415.415" x2="175.728" y2="1438.353"/>
	</g>
</g>
<path fill="#231F20" stroke="#231F20" stroke-width="1.5073" stroke-miterlimit="10" d="M146.458,1426.119
	c0-7.646,6.215-13.815,13.814-13.815c7.645,0,13.814,6.17,13.814,13.815c0,7.6-6.17,13.814-13.814,13.814
	C152.673,1439.934,146.458,1433.719,146.458,1426.119z M149.901,1426.119c0,5.678,4.648,10.327,10.371,10.327
	s10.373-4.649,10.373-10.327c0-5.723-4.65-10.373-10.373-10.373S149.901,1420.396,149.901,1426.119z"/>
<text transform="matrix(1 0 0 1 137.2334 1459.4043)" fill="#231F20" font-family="'HelveticaNeue'" font-size="12">Módulo</text>
<rect y="1194.515" fill="#1A1818" width="595.279" height="25.53"/>
<text transform="matrix(1 0 0 1 270.0273 1211.3154)" fill="#FFFFFF" font-family="'HelveticaNeue-UltraLight'" font-size="12">Márgenes</text>
<rect x="-0.999" y="1515.692" fill="#1A1818" width="595.279" height="25.53"/>
<text transform="matrix(1 0 0 1 253.3213 1532.4932)" fill="#FFFFFF" font-family="'HelveticaNeue-UltraLight'" font-size="12">Monocromático</text>
</svg>
