<?xml version="1.0" encoding="utf-8"?>
<!-- Generator: Adobe Illustrator 16.0.0, SVG Export Plug-In . SVG Version: 6.00 Build 0)  -->
<!DOCTYPE svg PUBLIC "-//W3C//DTD SVG 1.1//EN" "http://www.w3.org/Graphics/SVG/1.1/DTD/svg11.dtd">
<svg version="1.1" id="Layer_1" xmlns="http://www.w3.org/2000/svg" xmlns:xlink="http://www.w3.org/1999/xlink" x="0px" y="0px"
	 width="450px" height="650px" viewBox="0 0 450 650" enable-background="new 0 0 450 650" xml:space="preserve">
<g>
	<g>
		<path fill="#169DD6" d="M121.846,265.63c-6.97,0-13.114,4.875-15.478,4.776c-2.363-0.101,3.206-3.994-0.173-5.384
			c-3.122-0.347-3.641-3.148-3.849-3.821c-0.208-0.673-0.684-6.688-0.684-10.032c0-3.344,0.375-8.023,0.578-10.857
			c0.203-2.833,1.304-4.313,4.61-4.719c3.307-0.405,14.995-0.58,14.995-0.58s11.688,0.174,14.995,0.58
			c3.307,0.406,4.408,1.885,4.611,4.719c0.203,2.833,0.578,7.513,0.578,10.857c0,3.343-0.477,9.359-0.685,10.032
			c-0.208,0.673-0.727,3.475-3.849,3.821C134.375,265.37,123.428,265.674,121.846,265.63z"/>
		<g>
			<path fill="#FFFFFF" d="M110.75,260.362l-4.398-18.817h4.48l1.402,7.761c0.412,2.233,0.797,4.663,1.1,6.561h0.055
				c0.302-2.038,0.742-4.3,1.209-6.617l1.566-7.706h4.454l1.485,7.929c0.412,2.206,0.714,4.215,0.989,6.309h0.055
				c0.275-2.094,0.687-4.299,1.072-6.533l1.512-7.706h4.261l-4.783,18.817h-4.536l-1.567-8.097c-0.357-1.898-0.66-3.657-0.879-5.807
				h-0.055c-0.33,2.122-0.632,3.909-1.072,5.807l-1.76,8.097H110.75z"/>
			<path fill="#FFFFFF" d="M135.601,242.912c0,1.173-0.879,2.122-2.254,2.122c-1.32,0-2.2-0.949-2.172-2.122
				c-0.028-1.228,0.852-2.149,2.199-2.149S135.574,241.684,135.601,242.912z M131.286,260.362v-13.652h4.178v13.652H131.286z"/>
			<path fill="#2F2A2B" d="M144.508,241.544h11.326v3.49h-7.12v4.3h6.652v3.462h-6.652v7.566h-4.206V241.544z"/>
			<path fill="#2F2A2B" d="M162.625,242.912c0,1.173-0.879,2.122-2.254,2.122c-1.32,0-2.2-0.949-2.172-2.122
				c-0.027-1.228,0.853-2.149,2.2-2.149S162.597,241.684,162.625,242.912z M158.309,260.362v-13.652h4.179v13.652H158.309z"/>
		</g>
		<g>
			<path fill="#2F2A2B" stroke="#2F2A2B" stroke-width="3.8308" stroke-miterlimit="10" d="M122.246,213.814h2.169v8.841
				c0,4.893-3.888,8.84-8.705,8.84c-4.789,0-8.705-3.948-8.705-8.84v-8.841h2.198v8.841c0,3.662,2.901,6.637,6.507,6.637
				s6.536-2.975,6.536-6.637V213.814z"/>
			<path fill="#2F2A2B" stroke="#2F2A2B" stroke-width="3.8308" stroke-miterlimit="10" d="M143.542,222.655v8.841h-2.197v-8.841
				c0-3.662-2.93-6.637-6.508-6.637c-3.606,0-6.536,2.975-6.536,6.637v8.841h-2.197v-8.841h0.028c0-4.892,3.888-8.84,8.705-8.84
				C139.626,213.814,143.542,217.763,143.542,222.655z"/>
			<path fill="#2F2A2B" stroke="#2F2A2B" stroke-width="3.8308" stroke-miterlimit="10" d="M145.231,222.655
				c0-4.892,3.916-8.84,8.705-8.84c4.817,0,8.705,3.948,8.705,8.84c0,4.864-3.888,8.841-8.705,8.841
				C149.147,231.496,145.231,227.519,145.231,222.655z M147.401,222.655c0,3.634,2.93,6.609,6.535,6.609
				c3.606,0,6.536-2.976,6.536-6.609c0-3.662-2.93-6.637-6.536-6.637C150.331,216.018,147.401,218.993,147.401,222.655z"/>
		</g>
	</g>
</g>
</svg>
